<?xml version="1.0" encoding="utf-8"?>
<!-- Generator: Adobe Illustrator 22.0.1, SVG Export Plug-In . SVG Version: 6.00 Build 0)  -->
<svg version="1.1" id="Layer_1" xmlns="http://www.w3.org/2000/svg" xmlns:xlink="http://www.w3.org/1999/xlink" x="0px" y="0px"
	 viewBox="0 0 1726.8 210.2" style="enable-background:new 0 0 1726.8 210.2;" xml:space="preserve">
<style type="text/css">
	.st0{fill:#FF179C;}
</style>
<g>
	<path d="M36.3,202.9H0.1V1.9h36.2v79.3h5.2c3.8-7.8,9.4-13.9,16.7-18.2c7.3-4.3,16.6-6.5,27.9-6.5c8.4,0,16.4,1.6,24,4.9
		c7.6,3.3,14.2,8,19.8,14.2c5.6,6.2,10.1,13.8,13.5,22.8s5,19.2,5,30.7v5.2c0,11.7-1.6,22-4.9,31c-3.3,9-7.7,16.6-13.2,22.8
		c-5.6,6.2-12.1,10.9-19.7,14.1s-15.7,4.7-24.6,4.7c-6.5,0-12.2-0.7-16.9-2c-4.8-1.3-9-3.2-12.5-5.5s-6.5-4.9-8.9-7.9
		s-4.4-6.1-6.2-9.3h-5.2L36.3,202.9L36.3,202.9z M74.2,172.5c11.3,0,20.4-3.5,27.4-10.5s10.5-16.5,10.5-28.6V130
		c0-12.1-3.5-21.6-10.5-28.6S85.5,90.9,74.2,90.9c-11.3,0-20.4,3.6-27.4,10.8S36.3,118.3,36.3,130v3.4c0,11.7,3.5,21.1,10.5,28.3
		S62.9,172.5,74.2,172.5z"/>
	<path d="M321.5,133.4c0,11.9-2,22.4-6,31.4c-4,9.1-9.5,16.8-16.4,23s-14.8,11-23.7,14.2c-8.9,3.3-18.2,4.9-28,4.9s-19.1-1.6-28-4.9
		c-8.9-3.3-16.8-8-23.7-14.2c-6.9-6.2-12.4-13.9-16.4-23s-6-19.6-6-31.4V130c0-11.7,2-22.1,6-31.2c4-9.1,9.5-16.8,16.4-23.1
		c6.9-6.3,14.8-11.1,23.7-14.4c8.9-3.3,18.2-4.9,28-4.9s19.1,1.6,28,4.9c8.9,3.3,16.8,8,23.7,14.4c6.9,6.3,12.4,14,16.4,23.1
		c4,9.1,6,19.5,6,31.2V133.4z M247.4,172.5c5.2,0,10.1-0.9,14.6-2.6c4.6-1.7,8.6-4.2,12.1-7.5c3.4-3.3,6.2-7.2,8.2-11.9s3-10,3-15.9
		v-5.7c0-5.9-1-11.2-3-15.9s-4.7-8.7-8.2-11.9c-3.4-3.3-7.5-5.7-12.1-7.5c-4.6-1.7-9.5-2.6-14.6-2.6c-5.2,0-10.1,0.9-14.6,2.6
		c-4.6,1.7-8.6,4.2-12.1,7.5c-3.4,3.3-6.2,7.2-8.2,11.9s-3,10-3,15.9v5.7c0,5.9,1,11.3,3,15.9c2,4.7,4.7,8.7,8.2,11.9
		c3.4,3.3,7.5,5.7,12.1,7.5C237.4,171.6,242.2,172.5,247.4,172.5z"/>
	<path d="M347.6,60.5h39.1l37.4,125.2h-2.5L459,60.5h39.1l-40.8,142.4h-68.9L347.6,60.5z"/>
	<path d="M565.3,143.5c0.2,4.2,1.2,8.1,3,11.6s4.3,6.6,7.5,9.2c3.2,2.6,6.8,4.6,10.9,6c4.1,1.4,8.5,2.2,13.1,2.2
		c9,0,15.9-1.6,20.7-4.7c4.8-3.2,8.2-6.9,10.3-11.3l31,17.2c-1.7,3.6-4.1,7.4-7.2,11.3c-3.1,3.9-7,7.5-11.9,10.8s-10.8,5.9-17.8,8
		s-15.2,3.2-24.6,3.2c-10.7,0-20.5-1.7-29.3-5.2c-8.8-3.4-16.4-8.4-22.8-14.9c-6.4-6.5-11.4-14.5-14.9-23.8
		c-3.5-9.4-5.3-20-5.3-31.9v-1.7c0-10.9,1.9-20.9,5.6-29.9c3.7-9,8.9-16.7,15.4-23s14.1-11.2,22.8-14.8c8.7-3.5,18-5.3,28-5.3
		c12.3,0,22.8,2.2,31.6,6.5s16.1,9.8,21.8,16.4c5.7,6.6,10,13.9,12.6,21.8c2.7,7.9,4,15.7,4,23.1v19.2L565.3,143.5L565.3,143.5z
		 M599.5,89.2c-9.2,0-16.7,2.3-22.4,7s-9.5,10.1-11.2,16.2h67.2c-1.1-6.7-4.7-12.2-10.8-16.7C616.3,91.4,608.7,89.2,599.5,89.2z"/>
	<path d="M745.4,202.9h-36.2V60.5h36.2v21.3h5.2c3.3-8,8.5-14.3,15.8-18.7c7.3-4.4,15.8-6.6,25.6-6.6c6.9,0,13.4,1.1,19.4,3.3
		c6,2.2,11.3,5.6,15.9,10.2c4.6,4.6,8.2,10.4,10.8,17.5s3.9,15.5,3.9,25.3v90.1h-36.2v-81c0-10.1-2.4-18.1-7.3-24
		c-4.9-5.8-11.9-8.8-21.1-8.8c-10.7,0-18.7,3.6-24,10.8s-7.9,16.8-7.9,28.9v74.1H745.4z"/>
	<path d="M1059.9,168.5h50V36.4h-48.2V1.9h84.4v166.6h46.5v34.4h-132.7L1059.9,168.5L1059.9,168.5z"/>
	<path d="M1328.7,182.3c-3.8,9-9.2,15.4-16.1,19.1s-14.9,5.6-24.1,5.6c-8.6,0-16.7-1.6-24.3-4.9c-7.6-3.3-14.2-8-20-14.4
		c-5.7-6.3-10.3-14-13.6-23c-3.4-9-5-19.2-5-30.7v-4.6c0-11.3,1.6-21.4,4.9-30.4s7.7-16.7,13.2-23c5.6-6.3,12-11.2,19.4-14.5
		c7.4-3.3,15.3-5,23.7-5c10.1,0,18.3,1.7,24.6,5.2c6.2,3.4,11.2,8.8,14.8,16.1h5.2V60.6h36.2v108h13.2v34.3h-24.7
		c-6.5,0-11.8-1.9-15.9-5.7s-6.2-8.8-6.2-14.9L1328.7,182.3L1328.7,182.3z M1296.5,172.5c10.5,0,19-3.5,25.3-10.5s9.5-16.5,9.5-28.6
		V130c0-12.1-3.2-21.6-9.5-28.6s-14.7-10.5-25.3-10.5c-10.5,0-19,3.5-25.3,10.5s-9.5,16.5-9.5,28.6v3.4c0,12.1,3.2,21.6,9.5,28.6
		C1277.6,169,1286,172.5,1296.5,172.5z"/>
	<path d="M1448.5,202.9h-36.2V60.5h36.2v21.3h5.2c3.3-8,8.5-14.3,15.8-18.7c7.3-4.4,15.8-6.6,25.6-6.6c6.9,0,13.4,1.1,19.4,3.3
		c6,2.2,11.3,5.6,15.9,10.2s8.2,10.4,10.8,17.5c2.6,7.1,3.9,15.5,3.9,25.3v90.1h-36.3v-81c0-10.1-2.4-18.1-7.3-24
		c-4.9-5.8-11.9-8.8-21.1-8.8c-10.7,0-18.7,3.6-24,10.8s-7.9,16.8-7.9,28.9V202.9z"/>
	<path d="M1690.3,182.3h-5.2c-1.5,3.3-3.4,6.4-5.6,9.3c-2.2,3-5.1,5.6-8.6,7.9c-3.5,2.3-7.8,4.1-12.6,5.5c-4.9,1.3-10.8,2-17.7,2
		c-8.8,0-17-1.6-24.6-4.7c-7.6-3.2-14.2-7.8-19.8-14.1c-5.6-6.2-10.1-13.8-13.2-22.8c-3.2-9-4.7-19.3-4.7-31v-5.2
		c0-11.5,1.7-21.7,5-30.7s7.9-16.6,13.8-22.8c5.8-6.2,12.6-11,20.4-14.2c7.8-3.3,15.9-4.9,24.6-4.9c11.5,0,20.6,2.2,27.3,6.5
		c6.7,4.3,12,10.4,15.8,18.2h5.2V1.9h36.2v201h-36.2v-20.6H1690.3z M1652.4,172.5c11.3,0,20.4-3.6,27.4-10.8s10.5-16.6,10.5-28.3
		V130c0-11.7-3.5-21.1-10.5-28.3s-16.1-10.8-27.4-10.8s-20.4,3.5-27.4,10.5s-10.5,16.5-10.5,28.6v3.4c0,12.1,3.5,21.6,10.5,28.6
		C1631.9,169,1641.1,172.5,1652.4,172.5z"/>
</g>
<polygon class="st0" points="950.7,57.5 915.7,66.1 888.7,90 875.9,123.7 880.2,159.5 900.7,189.2 932.7,206 968.7,206 
	1000.7,189.2 1021.2,159.5 1025.5,123.7 1012.7,90 985.7,66.1 "/>
</svg>
