<?xml version="1.0" encoding="utf-8"?>
<!-- Generator: Adobe Illustrator 22.0.1, SVG Export Plug-In . SVG Version: 6.00 Build 0)  -->
<svg version="1.1" id="Layer_1" xmlns="http://www.w3.org/2000/svg" xmlns:xlink="http://www.w3.org/1999/xlink" x="0px" y="0px"
	 viewBox="0 0 392.5 57.2" style="enable-background:new 0 0 392.5 57.2;" xml:space="preserve">
<style type="text/css">
	.st0{fill:#FFFF00;}
</style>
<g>
	<path d="M36.3,37.2c1.5,2.8-1,5.3-6.8,6.7l-11.7,2.8l-9-16.1l11.3-2.7c1.8-0.4,3.4-0.6,4.9-0.6c3,0,5.2,0.9,6.2,2.6
		c1,1.8,0.1,3.5-2.3,4.6c0.4,0,0.9-0.1,1.3-0.1C33,34.3,35.3,35.3,36.3,37.2 M27.2,41.1c2.6-0.6,3.8-1.7,3.1-3
		c-0.4-0.8-1.5-1.2-2.9-1.2c-0.7,0-1.5,0.1-2.4,0.3l-5.5,1.3l2.2,3.8L27.2,41.1 M16.1,32.2l2,3.5l5.5-1.3c2.1-0.5,3-1.5,2.4-2.6
		c-0.4-0.8-1.3-1.1-2.6-1.1c-0.5,0-1.1,0.1-1.8,0.2L16.1,32.2"/>
	<path d="M59.2,15.5c7.9,0.6,13.3,4.8,12.4,9.7c-0.8,4.5-6.5,7.7-13.6,7.7c-0.6,0-1.3,0-1.9-0.1c-8-0.6-13.3-4.8-12.4-9.8
		c0.8-4.6,6.5-7.6,13.6-7.6C57.9,15.4,58.5,15.4,59.2,15.5 M65.6,24.7c0.5-3-2.6-5.6-6.9-5.9c-0.3,0-0.6,0-1,0c-4,0-7.5,1.9-8,4.7
		c-0.5,3,2.7,5.6,7.1,6c0.3,0,0.6,0,0.9,0C61.6,29.5,65.1,27.5,65.6,24.7"/>
	<polygon points="108.1,22.6 102.5,40.7 96.5,41.4 81.8,25.7 88,24.9 98.5,36.9 102.1,23.3 	"/>
	<polygon points="117.6,30.4 137.3,33.7 138.5,30.6 124.5,28.2 125.9,24.6 138.2,26.6 139.4,23.5 127.2,21.4 128.6,17.8 142.1,20.1 
		143.4,17 124.1,13.8 	"/>
	<polygon points="173,26.9 179,43.6 173.7,44.4 157.6,35.6 161.4,46.3 155.9,47.1 149.9,30.4 155.2,29.6 171.4,38.5 167.6,27.7 	"/>
	<polygon points="226.9,15.9 227,29.7 238.2,29.7 238.2,33.1 221.1,33.1 221,16 	"/>
	<path d="M268.8,25.1l6,18.3l-6.2-0.8l-1.1-3.5l-11.9-1.5l-3,3l-6-0.8l16.1-15.5L268.8,25.1z M258.5,34.7l8.1,1l-2.1-7.1L258.5,34.7
		"/>
	<polygon points="304.7,16.2 311.3,32.8 306.1,33.7 289.6,25.1 293.8,35.8 288.4,36.7 281.7,20.1 286.9,19.2 303.5,27.8 299.2,17.1 
			"/>
	<path d="M342.4,17.7c7.9,1.3,12,5.7,10,10.6c-1.6,4-6.5,6.4-12.6,6.4c-1.4,0-2.8-0.1-4.3-0.4l-10.5-1.8l6.6-16.6L342.4,17.7z
		 M346.6,27.4c1.2-3.1-1.2-5.7-5.6-6.5l-4.9-0.8L332,30.3l5.2,0.9c0.7,0.1,1.4,0.2,2,0.2C342.6,31.4,345.6,29.9,346.6,27.4"/>
	<path class="st0" d="M197.1,19.3c6.4,0,11.7,3.4,11.7,7.7c0,4.2-5.2,7.7-11.7,7.7c-6.5,0-11.7-3.4-11.7-7.7
		C185.4,22.7,190.6,19.3,197.1,19.3"/>
</g>
</svg>
