<?xml version="1.0" encoding="utf-8"?>
<!-- Generator: Adobe Illustrator 24.1.0, SVG Export Plug-In . SVG Version: 6.00 Build 0)  -->
<svg version="1.1" id="Layer_1" xmlns="http://www.w3.org/2000/svg" xmlns:xlink="http://www.w3.org/1999/xlink" x="0px" y="0px"
	 viewBox="0 0 500 106" style="enable-background:new 0 0 500 106;" xml:space="preserve">
<style type="text/css">
	.st0{fill:#FFFFFF;}
</style>
<g>
	<g>
		<path class="st0" d="M872.5,38.3c-2.9,0-5.3-1-6.8-3.6l3.9-2.6c0.7,1.2,1.6,2.1,3.1,2.1c0.7,0,1.3-0.2,1.3-0.8
			c0-0.6-0.5-0.8-2.1-1.5l-0.9-0.3c-2.9-1.1-4.5-3-4.5-5.4c0-3.1,2.6-5.2,5.8-5.2c2.2,0,4.1,0.8,5.3,2.7l-2.9,2.9
			c-0.6-0.9-1.4-1.5-2.4-1.5c-0.7,0-1.2,0.2-1.2,0.8c0,0.7,0.5,0.9,2.2,1.5l0.7,0.3c3.2,1.2,4.5,3,4.5,5.5
			C878.6,36.3,876,38.3,872.5,38.3z"/>
		<path class="st0" d="M882.1,32.8v-7.2h-2.2l-1.1-4.5h3.3v-2.5l5.1-2.5v5.1h5.3l-1.1,4.5h-4.2v5.8c0,1.4,0.6,2,2,2h2.8V38h-4.7
			C884.1,38,882.1,36,882.1,32.8z"/>
		<path class="st0" d="M897.4,13.8c1.7,0,3,1.4,3,3c0,0.7-0.2,1.4-0.7,1.9H895c-0.4-0.5-0.7-1.2-0.7-1.9
			C894.4,15.1,895.7,13.8,897.4,13.8z M894.8,38V21.1h5.1V38H894.8z"/>
		<path class="st0" d="M911.5,25.5c-1.1,0-2.1,0.5-2.8,1.3V38h-5.1V21.1h5.1v1c1-0.8,2.4-1.3,3.8-1.3c2,0,3.6,0.7,4.8,2.1
			c1-1,2.8-2.1,5.4-2.1c5,0,7.1,3.5,7.1,7.7V38h-5.1v-8.5c0-2.2-0.6-4-2.7-4c-1.1,0-2.2,0.6-2.9,1.5c0.1,0.5,0.1,1,0.1,1.6V38h-5.1
			v-8.5C914.2,27.3,913.6,25.5,911.5,25.5z"/>
		<path class="st0" d="M944.5,36.7c-1,0.9-2.6,1.5-4,1.5c-4.6,0-7.2-3.1-7.2-7.7v-9.4h5.1v8.5c0,2.3,0.9,4,3,4
			c1.2,0,2.5-0.6,3.2-1.7V21.1h5.1V38h-5.1V36.7z"/>
		<path class="st0" d="M953.2,14h5.1v24h-5.1V14z"/>
		<path class="st0" d="M961.1,29.6c0-5,3.5-8.7,8.7-8.7c4.3,0,8.1,2.8,8.1,8.1c0,0.5,0,1-0.1,1.5H966c0.3,2.3,2.2,3.1,3.7,3.1
			c1.8,0,2.9-0.9,3.6-2.1l4.1,2.7c-1.6,2.4-4.3,4.1-7.6,4.1C965.2,38.3,961.1,34.8,961.1,29.6z M972.9,27.5l0-0.2
			c-0.3-1.7-1.8-2.4-3.4-2.4c-1.2,0-3,0.5-3.4,2.6H972.9z"/>
		<path class="st0" d="M988.8,25.8c-1,0-2.3,0.4-3.1,1.1v11h-5.1V21.1h5.1v1.5c0.9-1.2,2.2-1.8,3.8-1.8c0.5,0,1.2,0.1,1.8,0.3v5.3
			C990.6,26,989.6,25.8,988.8,25.8z"/>
		<path class="st0" d="M996.1,13.8c1.7,0,3,1.4,3,3c0,0.7-0.2,1.4-0.7,1.9h-4.7c-0.4-0.5-0.7-1.2-0.7-1.9
			C993,15.1,994.4,13.8,996.1,13.8z M993.5,38V21.1h5.1V38H993.5z"/>
		<path class="st0" d="M1010.5,25.5c-1,0-2.2,0.5-3,1.5v11h-5.1V21.1h5.1v1c1-0.8,2.4-1.3,3.9-1.3c4.8,0,7.4,3.2,7.4,7.7V38h-5.1
			v-8.5C1013.6,27.2,1012.7,25.5,1010.5,25.5z"/>
		<path class="st0" d="M1022.1,42.7l2.3-4.5c1.4,1,3,1.7,5,1.7c2,0,3.8-0.7,3.8-2.7c0-0.3-0.1-0.9-0.4-1.4c-1,0.8-2.4,1.3-3.7,1.3
			c-5.1,0-8-4-8-8.1c0-4.1,2.9-8.1,8-8.1c1.4,0,2.7,0.5,3.7,1.3v-1h5.1v13.6c0.5,1.2,0.7,2.3,0.7,3.3c0,4.8-4.5,6.5-8.8,6.5
			C1027.2,44.5,1024.5,44.2,1022.1,42.7z M1029.7,25.5c-2.3,0-3.5,1.7-3.5,3.4c0,1.7,1.2,3.4,3.5,3.4c1.2,0,2.3-0.5,3-1.4v-4.1
			C1032,26,1031,25.5,1029.7,25.5z"/>
		<path class="st0" d="M1046.6,38.3c-2.9,0-5.3-1-6.8-3.6l3.9-2.6c0.7,1.2,1.6,2.1,3.1,2.1c0.7,0,1.3-0.2,1.3-0.8
			c0-0.6-0.5-0.8-2.1-1.5l-0.9-0.3c-2.9-1.1-4.5-3-4.5-5.4c0-3.1,2.6-5.2,5.8-5.2c2.2,0,4.1,0.8,5.3,2.7l-2.9,2.9
			c-0.6-0.9-1.4-1.5-2.4-1.5c-0.7,0-1.2,0.2-1.2,0.8c0,0.7,0.5,0.9,2.2,1.5l0.7,0.3c3.2,1.2,4.5,3,4.5,5.5
			C1052.7,36.3,1050,38.3,1046.6,38.3z"/>
	</g>
	<g>
		<path class="st0" d="M868.3,59.3h-2.2v-4.5h2.5c-0.6-0.7-1-1.7-1-2.8c0-2.4,1.8-4.3,4.6-4.3h5.2v4.5H874c-1.2,0-1.7,0.6-1.7,1.3
			c0,0.7,0.6,1.3,1.3,1.3h3.6v4.5h-3.9v12.4h-5.1V59.3z"/>
		<path class="st0" d="M896,63.3c0,4.8-3.9,8.7-8.8,8.7c-4.9,0-8.8-3.9-8.8-8.7c0-4.8,3.9-8.7,8.8-8.7C892.1,54.6,896,58.5,896,63.3
			z M890.9,63.3c0-2.3-1.6-4-3.6-4c-2.1,0-3.6,1.6-3.6,4c0,2.3,1.6,4,3.6,4C889.3,67.3,890.9,65.6,890.9,63.3z"/>
		<path class="st0" d="M906.8,59.3c-1,0-2.2,0.5-3,1.5v11h-5.1V54.9h5.1v1c1-0.8,2.4-1.3,3.9-1.3c4.8,0,7.4,3.2,7.4,7.7v9.4H910
			v-8.5C910,61,909.1,59.3,906.8,59.3z"/>
		<path class="st0" d="M925.8,72c-5,0-8.2-4.1-8.2-8.7c0-4.6,3.2-8.7,8.2-8.7c1.4,0,2.7,0.5,3.7,1.3v-8.1h5.1v24h-5.1v-1
			C928.6,71.6,927.2,72,925.8,72z M929.5,66v-5.3c-0.7-0.9-1.6-1.4-2.9-1.4c-2.4,0-3.9,1.8-3.9,4.1c0,2.2,1.5,4.1,3.9,4.1
			C927.9,67.4,928.9,66.9,929.5,66z"/>
		<path class="st0" d="M943.3,72c-2.9,0-5.3-1-6.8-3.6l3.9-2.6c0.7,1.2,1.6,2.1,3.1,2.1c0.7,0,1.3-0.2,1.3-0.8
			c0-0.6-0.5-0.8-2.1-1.5l-0.9-0.3c-2.9-1.1-4.5-3-4.5-5.4c0-3.1,2.6-5.2,5.8-5.2c2.2,0,4.1,0.8,5.3,2.7l-2.9,2.9
			c-0.6-0.9-1.4-1.5-2.4-1.5c-0.7,0-1.2,0.2-1.2,0.8c0,0.7,0.5,0.9,2.2,1.5l0.7,0.3c3.2,1.2,4.5,3,4.5,5.5
			C949.4,70.1,946.8,72,943.3,72z"/>
	</g>
	<g>
		<path class="st0" d="M866.5,97.1c0-4.8,3.9-8.7,8.8-8.7c3.1,0,5.8,1.6,7.4,4l-4.1,2.9c-0.7-1.2-1.9-2.1-3.3-2.1
			c-2.1,0-3.6,1.6-3.6,4c0,2.3,1.6,4,3.6,4c1.5,0,2.7-0.8,3.3-2.1l4.1,2.9c-1.6,2.4-4.3,4-7.4,4C870.5,105.8,866.5,101.9,866.5,97.1
			z"/>
		<path class="st0" d="M893,93.4c-1,0-2.3,0.4-3.1,1.1v11h-5.1V88.6h5.1v1.5c0.9-1.2,2.2-1.8,3.8-1.8c0.5,0,1.2,0.1,1.8,0.3v5.3
			C894.8,93.5,893.9,93.4,893,93.4z"/>
		<path class="st0" d="M896.8,97.1c0-5,3.5-8.7,8.7-8.7c4.3,0,8.1,2.8,8.1,8.1c0,0.5,0,1-0.1,1.5h-11.9c0.3,2.3,2.2,3.1,3.7,3.1
			c1.8,0,2.9-0.9,3.6-2.1l4.1,2.7c-1.6,2.4-4.3,4.1-7.6,4.1C900.9,105.8,896.8,102.3,896.8,97.1z M908.6,95l0-0.2
			c-0.3-1.7-1.8-2.4-3.4-2.4c-1.2,0-3,0.5-3.4,2.6H908.6z"/>
		<path class="st0" d="M923.5,105.8c-5,0-8.2-4.1-8.2-8.7c0-4.6,3.2-8.7,8.2-8.7c1.4,0,2.7,0.5,3.7,1.3v-1h5.1v16.9h-5.1v-1
			C926.3,105.3,924.9,105.8,923.5,105.8z M927.2,99.7v-5.3c-0.7-0.9-1.6-1.4-2.9-1.4c-2.4,0-3.9,1.8-3.9,4.1c0,2.2,1.5,4.1,3.9,4.1
			C925.6,101.1,926.6,100.6,927.2,99.7z"/>
		<path class="st0" d="M936.9,100.3v-7.2h-2.2l-1.1-4.5h3.3v-2.5l5.1-2.5v5.1h5.3l-1.1,4.5H942v5.8c0,1.4,0.6,2,2,2h2.8v4.7h-4.7
			C938.9,105.5,936.9,103.5,936.9,100.3z"/>
		<path class="st0" d="M952.2,81.3c1.7,0,3,1.4,3,3c0,0.7-0.2,1.4-0.7,1.9h-4.7c-0.4-0.5-0.7-1.2-0.7-1.9
			C949.2,82.6,950.5,81.3,952.2,81.3z M949.6,105.5V88.6h5.1v16.9H949.6z"/>
		<path class="st0" d="M957.5,97.1c0-5,3.5-8.7,8.7-8.7c4.3,0,8.1,2.8,8.1,8.1c0,0.5,0,1-0.1,1.5h-11.9c0.3,2.3,2.2,3.1,3.7,3.1
			c1.8,0,2.9-0.9,3.6-2.1l4.1,2.7c-1.6,2.4-4.3,4.1-7.6,4.1C961.6,105.8,957.5,102.3,957.5,97.1z M969.3,95l0-0.2
			c-0.3-1.7-1.8-2.4-3.4-2.4c-1.2,0-3,0.5-3.4,2.6H969.3z"/>
		<path class="st0" d="M987.7,88.6h5.9l-9.8,17.2l-9.8-17.2h5.9l4,7.4L987.7,88.6z"/>
		<path class="st0" d="M992.7,97.1c0-5,3.5-8.7,8.7-8.7c4.3,0,8.1,2.8,8.1,8.1c0,0.5,0,1-0.1,1.5h-11.9c0.3,2.3,2.2,3.1,3.7,3.1
			c1.8,0,2.9-0.9,3.6-2.1l4.1,2.7c-1.6,2.4-4.3,4.1-7.6,4.1C996.9,105.8,992.7,102.3,992.7,97.1z M1004.6,95l0-0.2
			c-0.3-1.7-1.8-2.4-3.4-2.4c-1.2,0-3,0.5-3.4,2.6H1004.6z"/>
	</g>
	<g>
		<path class="st0" d="M870.1,115c1.7,0,3,1.4,3,3c0,0.7-0.2,1.4-0.7,1.9h-4.7c-0.4-0.5-0.7-1.2-0.7-1.9
			C867,116.4,868.4,115,870.1,115z M867.5,139.3v-16.9h5.1v16.9H867.5z"/>
		<path class="st0" d="M884.5,126.8c-1,0-2.2,0.5-3,1.5v11h-5.1v-16.9h5.1v1c1-0.8,2.4-1.3,3.9-1.3c4.8,0,7.4,3.2,7.4,7.7v9.4h-5.1
			v-8.5C887.6,128.5,886.7,126.8,884.5,126.8z"/>
		<path class="st0" d="M903.4,139.6c-5,0-8.2-4.1-8.2-8.7c0-4.6,3.2-8.7,8.2-8.7c1.4,0,2.7,0.5,3.7,1.3v-8.1h5.1v24h-5.1v-1
			C906.2,139.1,904.8,139.6,903.4,139.6z M907.2,133.5v-5.3c-0.7-0.9-1.6-1.4-2.9-1.4c-2.4,0-3.9,1.8-3.9,4.1c0,2.2,1.5,4.1,3.9,4.1
			C905.5,134.9,906.5,134.4,907.2,133.5z"/>
		<path class="st0" d="M927,138c-1,0.9-2.6,1.5-4,1.5c-4.6,0-7.2-3.1-7.2-7.7v-9.4h5.1v8.5c0,2.3,0.9,4,3,4c1.2,0,2.5-0.6,3.2-1.7
			v-10.8h5.1v16.9H927V138z"/>
		<path class="st0" d="M940.7,139.6c-2.9,0-5.3-1-6.8-3.6l3.9-2.6c0.7,1.2,1.6,2.1,3.1,2.1c0.7,0,1.3-0.2,1.3-0.8
			c0-0.6-0.5-0.8-2.1-1.5l-0.9-0.3c-2.9-1.1-4.5-3-4.5-5.4c0-3.1,2.6-5.2,5.8-5.2c2.2,0,4.1,0.8,5.3,2.7l-2.9,2.9
			c-0.6-0.9-1.4-1.5-2.4-1.5c-0.7,0-1.2,0.2-1.2,0.8c0,0.7,0.5,0.9,2.2,1.5l0.7,0.3c3.2,1.2,4.5,3,4.5,5.5
			C946.9,137.6,944.2,139.6,940.7,139.6z"/>
		<path class="st0" d="M950.4,134.1v-7.2h-2.2l-1.1-4.5h3.3v-2.5l5.1-2.5v5.1h5.3l-1.1,4.5h-4.2v5.8c0,1.4,0.6,2,2,2h2.8v4.7h-4.7
			C952.4,139.3,950.4,137.3,950.4,134.1z"/>
		<path class="st0" d="M971.2,127.1c-1,0-2.3,0.4-3.1,1.1v11h-5.1v-16.9h5.1v1.5c0.9-1.2,2.2-1.8,3.8-1.8c0.5,0,1.2,0.1,1.8,0.3v5.3
			C973.1,127.3,972.1,127.1,971.2,127.1z"/>
		<path class="st0" d="M978.6,115c1.7,0,3,1.4,3,3c0,0.7-0.2,1.4-0.7,1.9h-4.7c-0.4-0.5-0.7-1.2-0.7-1.9
			C975.5,116.4,976.9,115,978.6,115z M976,139.3v-16.9h5.1v16.9H976z"/>
		<path class="st0" d="M983.8,130.8c0-5,3.5-8.7,8.7-8.7c4.3,0,8.1,2.8,8.1,8.1c0,0.5,0,1-0.1,1.5h-11.9c0.3,2.3,2.2,3.1,3.7,3.1
			c1.8,0,2.9-0.9,3.6-2.1l4.1,2.7c-1.6,2.4-4.3,4.1-7.6,4.1C988,139.6,983.8,136,983.8,130.8z M995.6,128.8l0-0.2
			c-0.3-1.7-1.8-2.4-3.4-2.4c-1.2,0-3,0.5-3.4,2.6H995.6z"/>
	</g>
</g>
<g>
	<g>
		<path d="M12,45.1c-5.1,0-9.3-1.8-11.8-6.2l6.8-4.6c1.2,2.1,2.8,3.6,5.4,3.6c1.2,0,2.3-0.3,2.3-1.4c0-1.1-0.8-1.5-3.7-2.6l-1.5-0.6
			c-5.1-2-7.8-5.3-7.8-9.5c0-5.4,4.5-9.1,10.1-9.1c3.8,0,7.1,1.4,9.3,4.6l-5.1,5c-1.1-1.6-2.4-2.6-4.2-2.6c-1.2,0-2.1,0.4-2.1,1.4
			c0,1.2,0.9,1.5,3.9,2.6l1.2,0.5c5.6,2.1,7.9,5.2,7.9,9.5C22.6,41.8,18,45.1,12,45.1z"/>
		<path d="M28.7,35.6V23h-3.8L23,15.2h5.8v-4.4l8.9-4.4v8.8h9.3L45,23h-7.4v10.1c0,2.5,1,3.5,3.4,3.5h4.8v8.1h-8.1
			C32.2,44.6,28.7,41.2,28.7,35.6z"/>
		<path d="M55.3,2.4c2.9,0,5.3,2.4,5.3,5.3c0,1.3-0.4,2.5-1.2,3.4h-8.2C50.5,10.2,50,9,50,7.7C50,4.7,52.4,2.4,55.3,2.4z M50.9,44.6
			V15.2h8.9v29.4H50.9z"/>
		<path d="M80,22.9c-1.9,0-3.7,0.9-4.9,2.3v19.4h-8.9V15.2h8.9V17c1.7-1.4,4.2-2.2,6.7-2.2c3.5,0,6.4,1.3,8.4,3.6
			c1.7-1.8,4.9-3.6,9.4-3.6c8.8,0,12.4,6.1,12.4,13.5v16.4h-8.9V29.8c0-3.8-1.1-6.9-4.6-6.9c-2,0-3.9,1-5.1,2.5
			c0.1,0.9,0.2,1.8,0.2,2.8v16.4h-8.9V29.8C84.6,26,83.5,22.9,80,22.9z"/>
		<path d="M137.4,42.5c-1.8,1.6-4.5,2.6-7,2.6c-7.9,0-12.6-5.5-12.6-13.5V15.2h8.9v14.8c0,4,1.6,6.9,5.2,6.9c2.2,0,4.4-1.1,5.5-3
			V15.2h8.9v29.4h-8.9V42.5z"/>
		<path d="M152.7,2.9h8.9v41.8h-8.9V2.9z"/>
		<path d="M166.3,29.9c0-8.6,6.1-15.2,15.2-15.2c7.5,0,14.2,4.9,14.2,14.2c0,0.8-0.1,1.7-0.2,2.6h-20.7c0.5,3.9,3.8,5.5,6.4,5.5
			c3.1,0,5.1-1.5,6.3-3.7l7.1,4.8c-2.7,4.2-7.5,7.1-13.3,7.1C173.6,45.1,166.3,39,166.3,29.9z M186.9,26.3l-0.1-0.3
			c-0.6-2.9-3.1-4.1-5.9-4.1c-2.1,0-5.2,0.9-6,4.5H186.9z"/>
		<path d="M214.6,23.5c-1.8,0-3.9,0.7-5.4,1.9v19.2h-8.9V15.2h8.9v2.6c1.6-2.1,3.8-3.1,6.7-3.1c0.9,0,2.1,0.1,3.2,0.5v9.2
			C217.7,23.8,216.1,23.5,214.6,23.5z"/>
		<path d="M227.3,2.4c2.9,0,5.3,2.4,5.3,5.3c0,1.3-0.4,2.5-1.2,3.4h-8.2c-0.8-0.9-1.2-2.1-1.2-3.4C222,4.7,224.4,2.4,227.3,2.4z
			 M222.9,44.6V15.2h8.9v29.4H222.9z"/>
		<path d="M252.4,22.9c-1.7,0-3.8,0.9-5.3,2.5v19.2h-8.9V15.2h8.9V17c1.8-1.4,4.2-2.2,6.8-2.2c8.3,0,12.8,5.5,12.8,13.5v16.4h-8.9
			V29.8C257.8,25.9,256.3,22.9,252.4,22.9z"/>
		<path d="M272.7,52.8l4-7.8c2.4,1.8,5.2,3,8.7,3c3.5,0,6.7-1.2,6.7-4.7c0-0.6-0.1-1.6-0.8-2.5c-1.7,1.4-4.1,2.2-6.5,2.2
			c-8.9,0-13.9-6.9-13.9-14.1s5-14.1,13.9-14.1c2.4,0,4.8,0.8,6.5,2.2v-1.8h8.9v23.7c0.9,2.1,1.2,4,1.2,5.8
			c0,8.3-7.8,11.4-15.4,11.4C281.5,56.1,276.9,55.5,272.7,52.8z M285.9,22.9c-3.9,0-6.1,3-6.1,6c0,3,2.2,6,6.1,6
			c2.2,0,4-0.9,5.3-2.5v-7.1C289.9,23.8,288.1,22.9,285.9,22.9z"/>
		<path d="M315.3,45.1c-5.1,0-9.3-1.8-11.8-6.2l6.8-4.6c1.2,2.1,2.8,3.6,5.4,3.6c1.2,0,2.3-0.3,2.3-1.4c0-1.1-0.8-1.5-3.7-2.6
			l-1.5-0.6c-5.1-2-7.8-5.3-7.8-9.5c0-5.4,4.5-9.1,10.1-9.1c3.8,0,7.1,1.4,9.3,4.6l-5.1,5c-1.1-1.6-2.4-2.6-4.2-2.6
			c-1.2,0-2.1,0.4-2.1,1.4c0,1.2,0.9,1.5,3.9,2.6l1.2,0.5c5.6,2.1,7.9,5.2,7.9,9.5C326,41.8,321.3,45.1,315.3,45.1z"/>
		<path d="M331.7,23h-3.8v-7.8h4.3c-1.1-1.3-1.8-3-1.8-4.9c0-4.2,3.1-7.5,7.9-7.5h9.1v7.8h-5.8c-2.1,0-2.9,1-2.9,2.3
			c0,1.3,1,2.3,2.3,2.3h6.4V23h-6.8v21.7h-8.9V23z"/>
		<path d="M380.1,29.9c0,8.4-6.8,15.2-15.3,15.2c-8.5,0-15.3-6.8-15.3-15.2s6.8-15.2,15.3-15.2C373.3,14.8,380.1,21.6,380.1,29.9z
			 M371.1,29.9c0-4.1-2.7-6.9-6.4-6.9c-3.6,0-6.4,2.8-6.4,6.9c0,4.1,2.7,6.9,6.4,6.9C368.4,36.8,371.1,34,371.1,29.9z"/>
		<path d="M399,22.9c-1.7,0-3.8,0.9-5.3,2.5v19.2h-8.9V15.2h8.9V17c1.8-1.4,4.2-2.2,6.8-2.2c8.3,0,12.8,5.5,12.8,13.5v16.4h-8.9
			V29.8C404.4,25.9,402.9,22.9,399,22.9z"/>
		<path d="M432,45.1c-8.7,0-14.2-7.1-14.2-15.2c0-8.1,5.5-15.2,14.2-15.2c2.4,0,4.8,0.8,6.5,2.2V2.9h8.9v41.8h-8.9v-1.8
			C436.8,44.3,434.5,45.1,432,45.1z M438.5,34.5v-9.2c-1.2-1.6-2.8-2.5-5-2.5c-4.2,0-6.8,3.2-6.8,7.1s2.5,7.1,6.8,7.1
			C435.7,37,437.3,36.1,438.5,34.5z"/>
		<path d="M462.5,45.1c-5.1,0-9.3-1.8-11.8-6.2l6.8-4.6c1.2,2.1,2.8,3.6,5.4,3.6c1.2,0,2.3-0.3,2.3-1.4c0-1.1-0.8-1.5-3.7-2.6
			l-1.5-0.6c-5.1-2-7.8-5.3-7.8-9.5c0-5.4,4.5-9.1,10.1-9.1c3.8,0,7.1,1.4,9.3,4.6l-5.1,5c-1.1-1.6-2.4-2.6-4.2-2.6
			c-1.2,0-2.1,0.4-2.1,1.4c0,1.2,0.9,1.5,3.9,2.6l1.2,0.5c5.6,2.1,7.9,5.2,7.9,9.5C473.1,41.8,468.5,45.1,462.5,45.1z"/>
	</g>
	<g>
		<path d="M1.6,88.8c0-8.4,6.8-15.2,15.3-15.2c5.4,0,10.2,2.8,12.9,6.9l-7.1,5c-1.2-2.2-3.2-3.6-5.8-3.6c-3.6,0-6.4,2.8-6.4,6.9
			c0,4.1,2.7,6.9,6.4,6.9c2.6,0,4.6-1.5,5.8-3.6l7.1,5c-2.7,4.2-7.5,6.9-12.9,6.9C8.4,104,1.6,97.1,1.6,88.8z"/>
		<path d="M47.7,82.3c-1.8,0-3.9,0.7-5.4,1.9v19.2h-8.9V74.1h8.9v2.6c1.6-2.1,3.8-3.1,6.7-3.1c0.9,0,2.1,0.1,3.2,0.5v9.2
			C50.9,82.6,49.2,82.3,47.7,82.3z"/>
		<path d="M54.3,88.8c0-8.6,6.1-15.2,15.2-15.2c7.5,0,14.2,4.9,14.2,14.2c0,0.8-0.1,1.7-0.2,2.6H62.8c0.5,3.9,3.8,5.5,6.4,5.5
			c3.1,0,5.1-1.5,6.3-3.7l7.1,4.8c-2.7,4.2-7.5,7.1-13.3,7.1C61.5,104,54.3,97.8,54.3,88.8z M74.9,85.2l-0.1-0.3
			c-0.6-2.9-3.1-4.1-5.9-4.1c-2.1,0-5.2,0.9-6,4.5H74.9z"/>
		<path d="M100.9,104c-8.7,0-14.2-7.1-14.2-15.2c0-8.1,5.5-15.2,14.2-15.2c2.4,0,4.8,0.8,6.5,2.2v-1.8h8.9v29.4h-8.9v-1.8
			C105.7,103.1,103.3,104,100.9,104z M107.4,93.4v-9.2c-1.2-1.6-2.8-2.5-5-2.5c-4.2,0-6.8,3.2-6.8,7.1c0,3.9,2.5,7.1,6.8,7.1
			C104.5,95.8,106.2,95,107.4,93.4z"/>
		<path d="M124.2,94.4V81.8h-3.8l-1.9-7.8h5.8v-4.4l8.9-4.4v8.8h9.3l-1.9,7.8h-7.4v10.1c0,2.5,1,3.5,3.4,3.5h4.8v8.1h-8.1
			C127.7,103.5,124.2,100,124.2,94.4z"/>
		<path d="M150.8,61.2c2.9,0,5.3,2.4,5.3,5.3c0,1.3-0.4,2.5-1.2,3.4h-8.2c-0.8-0.9-1.2-2.1-1.2-3.4
			C145.5,63.6,147.9,61.2,150.8,61.2z M146.4,103.5V74.1h8.9v29.4H146.4z"/>
		<path d="M160,88.8c0-8.6,6.1-15.2,15.2-15.2c7.5,0,14.2,4.9,14.2,14.2c0,0.8-0.1,1.7-0.2,2.6h-20.7c0.5,3.9,3.8,5.5,6.4,5.5
			c3.1,0,5.1-1.5,6.3-3.7l7.1,4.8c-2.7,4.2-7.5,7.1-13.3,7.1C167.3,104,160,97.8,160,88.8z M180.6,85.2l-0.1-0.3
			c-0.6-2.9-3.1-4.1-5.9-4.1c-2.1,0-5.2,0.9-6,4.5H180.6z"/>
		<path d="M212.7,74.1H223L205.9,104l-17.1-29.9H199l6.9,12.8L212.7,74.1z"/>
		<path d="M221.5,88.8c0-8.6,6.1-15.2,15.2-15.2c7.5,0,14.2,4.9,14.2,14.2c0,0.8-0.1,1.7-0.2,2.6H230c0.5,3.9,3.8,5.5,6.4,5.5
			c3.1,0,5.1-1.5,6.3-3.7l7.1,4.8c-2.7,4.2-7.5,7.1-13.3,7.1C228.7,104,221.5,97.8,221.5,88.8z M242.1,85.2l-0.1-0.3
			c-0.6-2.9-3.1-4.1-5.9-4.1c-2.1,0-5.2,0.9-6,4.5H242.1z"/>
		<path d="M272.3,61.2c2.9,0,5.3,2.4,5.3,5.3c0,1.3-0.4,2.5-1.2,3.4h-8.2c-0.8-0.9-1.2-2.1-1.2-3.4C267,63.6,269.4,61.2,272.3,61.2z
			 M267.9,103.5V74.1h8.9v29.4H267.9z"/>
		<path d="M297.4,81.7c-1.7,0-3.8,0.9-5.3,2.5v19.2h-8.9V74.1h8.9v1.8c1.8-1.4,4.2-2.2,6.8-2.2c8.3,0,12.8,5.5,12.8,13.5v16.4h-8.9
			V88.7C302.8,84.7,301.3,81.7,297.4,81.7z"/>
		<path d="M330.5,104c-8.7,0-14.2-7.1-14.2-15.2c0-8.1,5.5-15.2,14.2-15.2c2.4,0,4.8,0.8,6.5,2.2V61.7h8.9v41.8H337v-1.8
			C335.2,103.1,332.9,104,330.5,104z M337,93.4v-9.2c-1.2-1.6-2.8-2.5-5-2.5c-4.2,0-6.8,3.2-6.8,7.1c0,3.9,2.5,7.1,6.8,7.1
			C334.1,95.8,335.8,95,337,93.4z"/>
		<path d="M371.6,101.3c-1.8,1.6-4.5,2.6-7,2.6c-7.9,0-12.6-5.5-12.6-13.5V74.1h8.9v14.8c0,4,1.6,6.9,5.2,6.9c2.2,0,4.4-1.1,5.5-3
			V74.1h8.9v29.4h-8.9V101.3z"/>
		<path d="M395.6,104c-5.1,0-9.3-1.8-11.8-6.2l6.8-4.6c1.2,2.1,2.8,3.6,5.4,3.6c1.2,0,2.3-0.3,2.3-1.4c0-1.1-0.8-1.5-3.7-2.6
			l-1.5-0.6c-5.1-2-7.8-5.3-7.8-9.5c0-5.4,4.5-9.1,10.1-9.1c3.8,0,7.1,1.4,9.3,4.6l-5.1,5c-1.1-1.6-2.4-2.6-4.2-2.6
			c-1.2,0-2.1,0.4-2.1,1.4c0,1.2,0.9,1.5,3.9,2.6l1.2,0.5c5.6,2.1,7.9,5.2,7.9,9.5C406.2,100.6,401.6,104,395.6,104z"/>
		<path d="M412.3,94.4V81.8h-3.8l-1.9-7.8h5.8v-4.4l8.9-4.4v8.8h9.3l-1.9,7.8h-7.4v10.1c0,2.5,1,3.5,3.4,3.5h4.8v8.1h-8.1
			C415.8,103.5,412.3,100,412.3,94.4z"/>
		<path d="M448.7,82.3c-1.8,0-3.9,0.7-5.4,1.9v19.2h-8.9V74.1h8.9v2.6c1.6-2.1,3.8-3.1,6.7-3.1c0.9,0,2.1,0.1,3.2,0.5v9.2
			C451.9,82.6,450.2,82.3,448.7,82.3z"/>
		<path d="M461.5,61.2c2.9,0,5.3,2.4,5.3,5.3c0,1.3-0.4,2.5-1.2,3.4h-8.2c-0.8-0.9-1.2-2.1-1.2-3.4
			C456.2,63.6,458.5,61.2,461.5,61.2z M457,103.5V74.1h8.9v29.4H457z"/>
		<path d="M470.6,88.8c0-8.6,6.1-15.2,15.2-15.2c7.5,0,14.2,4.9,14.2,14.2c0,0.8-0.1,1.7-0.2,2.6h-20.7c0.5,3.9,3.8,5.5,6.4,5.5
			c3.1,0,5.1-1.5,6.3-3.7l7.1,4.8c-2.7,4.2-7.5,7.1-13.3,7.1C477.9,104,470.6,97.8,470.6,88.8z M491.2,85.2l-0.1-0.3
			c-0.6-2.9-3.1-4.1-5.9-4.1c-2.1,0-5.2,0.9-6,4.5H491.2z"/>
	</g>
</g>
</svg>
