<?xml version="1.0" encoding="utf-8"?>
<!-- Generator: Adobe Illustrator 24.1.0, SVG Export Plug-In . SVG Version: 6.00 Build 0)  -->
<svg version="1.1" id="Layer_1" xmlns="http://www.w3.org/2000/svg" xmlns:xlink="http://www.w3.org/1999/xlink" x="0px" y="0px"
	 viewBox="0 0 500 347" style="enable-background:new 0 0 500 347;" xml:space="preserve">
<style type="text/css">
	.st0{fill:#FFFFFF;}
</style>
<g>
	<g>
		<path class="st0" d="M18.2,65.6C10.3,65.6,3.9,62.8,0,56l10.4-7c1.8,3.3,4.2,5.5,8.3,5.5c1.9,0,3.5-0.5,3.5-2.1
			c0-1.7-1.3-2.3-5.7-4l-2.3-0.9C6.3,44.4,2.3,39.4,2.3,33c0-8.3,6.9-14,15.5-14c5.8,0,10.8,2.2,14.3,7.1l-7.8,7.7
			c-1.7-2.4-3.7-4.1-6.5-4.1c-1.8,0-3.3,0.6-3.3,2.1c0,1.8,1.4,2.3,6,4.1l1.9,0.7c8.6,3.3,12.1,7.9,12.1,14.6
			C34.5,60.4,27.4,65.6,18.2,65.6z"/>
		<path class="st0" d="M43.9,50.9V31.6H38l-3-11.9h8.9v-6.8l13.6-6.8v13.5h14.3l-3,11.9H57.5v15.4c0,3.8,1.5,5.3,5.2,5.3h7.4v12.5
			H57.7C49.2,64.8,43.9,59.5,43.9,50.9z"/>
		<path class="st0" d="M84.7,0c4.5,0,8.1,3.6,8.1,8.1c0,2-0.6,3.8-1.8,5.1H78.4c-1.2-1.4-1.8-3.2-1.8-5.1C76.6,3.6,80.2,0,84.7,0z
			 M77.8,64.8V19.7h13.7v45.2H77.8z"/>
		<path class="st0" d="M122.5,31.5c-2.9,0-5.7,1.4-7.5,3.5v29.8h-13.6V19.7H115v2.7c2.6-2.1,6.5-3.4,10.3-3.4c5.3,0,9.8,2,12.8,5.5
			c2.6-2.7,7.5-5.5,14.4-5.5c13.5,0,19,9.4,19,20.7v25.2h-13.6V42.1c0-5.9-1.7-10.6-7.1-10.6c-3.1,0-6,1.5-7.8,3.9
			c0.2,1.4,0.3,2.8,0.3,4.2v25.2h-13.6V42.1C129.7,36.2,128,31.5,122.5,31.5z"/>
		<path class="st0" d="M210.6,61.5c-2.7,2.5-7,4.1-10.7,4.1c-12.2,0-19.3-8.4-19.3-20.7V19.7h13.6v22.8c0,6.1,2.5,10.7,7.9,10.7
			c3.3,0,6.7-1.6,8.5-4.6V19.7h13.6v45.2h-13.6V61.5z"/>
		<path class="st0" d="M234.1,0.7h13.7v64.1h-13.7V0.7z"/>
		<path class="st0" d="M255,42.3C255,29,264.4,19,278.3,19c11.5,0,21.8,7.5,21.8,21.8c0,1.3-0.1,2.6-0.3,4h-31.7
			c0.7,6.1,5.8,8.4,9.8,8.4c4.8,0,7.9-2.3,9.7-5.7l10.8,7.3c-4.2,6.5-11.5,10.8-20.4,10.8C266.1,65.6,255,56.2,255,42.3z
			 M286.6,36.8l-0.1-0.5c-0.9-4.4-4.8-6.3-9-6.3c-3.3,0-7.9,1.4-9.2,6.9H286.6z"/>
		<path class="st0" d="M329.1,32.3c-2.8,0-6.1,1.1-8.2,3v29.5h-13.6V19.7h13.6v4c2.5-3.2,5.9-4.7,10.3-4.7c1.4,0,3.2,0.2,4.9,0.7
			v14.2C333.9,32.8,331.4,32.3,329.1,32.3z"/>
		<path class="st0" d="M348.7,0c4.5,0,8.1,3.6,8.1,8.1c0,2-0.6,3.8-1.8,5.1h-12.6c-1.2-1.4-1.8-3.2-1.8-5.1
			C340.5,3.6,344.1,0,348.7,0z M341.8,64.8V19.7h13.7v45.2H341.8z"/>
		<path class="st0" d="M387.1,31.4c-2.6,0-5.9,1.4-8.1,3.9v29.5h-13.6V19.7H379v2.7c2.7-2.2,6.4-3.4,10.4-3.4
			c12.7,0,19.7,8.5,19.7,20.7v25.2h-13.6V42.1C395.4,36,393.1,31.4,387.1,31.4z"/>
		<path class="st0" d="M418.3,77.3l6.1-12c3.6,2.8,8,4.6,13.3,4.6c5.4,0,10.3-1.8,10.3-7.2c0-0.9-0.2-2.4-1.2-3.8
			c-2.6,2.2-6.3,3.4-10,3.4c-13.6,0-21.3-10.7-21.3-21.7c0-11,7.7-21.7,21.3-21.7c3.7,0,7.3,1.3,9.9,3.4v-2.7h13.6v36.4
			c1.4,3.2,1.9,6.1,1.9,8.8c0,12.7-11.9,17.4-23.7,17.4C431.8,82.4,424.7,81.5,418.3,77.3z M438.6,31.4c-6.1,0-9.4,4.6-9.4,9.2
			c0,4.6,3.3,9.2,9.4,9.2c3.3,0,6.1-1.4,8.1-3.8V35.2C444.7,32.8,441.9,31.4,438.6,31.4z"/>
		<path class="st0" d="M483.7,65.6c-7.9,0-14.3-2.8-18.2-9.6l10.4-7c1.8,3.3,4.2,5.5,8.3,5.5c1.9,0,3.5-0.5,3.5-2.1
			c0-1.7-1.3-2.3-5.7-4l-2.3-0.9c-7.9-3.1-11.9-8.1-11.9-14.5c0-8.3,6.9-14,15.5-14c5.8,0,10.8,2.2,14.3,7.1l-7.8,7.7
			c-1.7-2.4-3.7-4.1-6.5-4.1c-1.8,0-3.2,0.6-3.2,2.1c0,1.8,1.4,2.3,6,4.1l1.9,0.7c8.6,3.3,12.1,7.9,12.1,14.6
			C500,60.4,492.9,65.6,483.7,65.6z"/>
	</g>
	<g>
		<path class="st0" d="M6.8,121.9H0.9V110h6.6c-1.7-2-2.8-4.6-2.8-7.5C4.7,96.1,9.4,91,16.9,91h14v11.9H22c-3.2,0-4.4,1.5-4.4,3.5
			c0,2,1.5,3.5,3.5,3.5h9.8v11.9H20.4v33.2H6.8V121.9z"/>
		<path class="st0" d="M81,132.6c0,12.8-10.5,23.3-23.5,23.3c-13,0-23.5-10.5-23.5-23.3c0-12.8,10.5-23.3,23.5-23.3
			C70.5,109.3,81,119.7,81,132.6z M67.3,132.6c0-6.2-4.2-10.6-9.8-10.6c-5.6,0-9.8,4.3-9.8,10.6c0,6.2,4.2,10.6,9.8,10.6
			C63.1,143.1,67.3,138.8,67.3,132.6z"/>
		<path class="st0" d="M110,121.7c-2.6,0-5.9,1.4-8.1,3.9v29.5H88.2V110h13.6v2.7c2.7-2.2,6.4-3.4,10.4-3.4
			c12.7,0,19.7,8.5,19.7,20.7v25.2h-13.6v-22.8C118.3,126.3,116,121.7,110,121.7z"/>
		<path class="st0" d="M160.7,155.9c-13.4,0-21.9-10.9-21.9-23.3c0-12.4,8.5-23.3,21.9-23.3c3.7,0,7.3,1.3,9.9,3.4V91h13.6v64.1
			h-13.6v-2.7C168.1,154.6,164.4,155.9,160.7,155.9z M170.7,139.6v-14.1c-1.8-2.4-4.3-3.8-7.7-3.8c-6.5,0-10.4,4.9-10.4,10.8
			c0,6,3.9,10.8,10.4,10.8C166.3,143.4,168.9,142,170.7,139.6z"/>
		<path class="st0" d="M207.5,155.9c-7.9,0-14.3-2.8-18.2-9.6l10.4-7c1.8,3.2,4.2,5.5,8.3,5.5c1.9,0,3.5-0.5,3.5-2.1
			c0-1.7-1.3-2.3-5.7-4l-2.3-0.9c-7.9-3.1-11.9-8.1-11.9-14.5c0-8.3,6.9-14,15.5-14c5.8,0,10.8,2.2,14.3,7.1l-7.8,7.7
			c-1.7-2.4-3.7-4.1-6.5-4.1c-1.8,0-3.3,0.6-3.3,2.1c0,1.8,1.4,2.3,6,4.1l1.9,0.7c8.6,3.3,12.1,7.9,12.1,14.6
			C223.9,150.7,216.7,155.9,207.5,155.9z"/>
	</g>
	<g>
		<path class="st0" d="M2.2,222.9c0-12.8,10.5-23.3,23.5-23.3c8.3,0,15.6,4.2,19.8,10.7l-10.8,7.7c-1.8-3.3-5-5.6-8.9-5.6
			c-5.6,0-9.8,4.3-9.8,10.6c0,6.2,4.2,10.6,9.8,10.6c4,0,7.1-2.3,8.9-5.6l10.8,7.7c-4.2,6.4-11.5,10.7-19.8,10.7
			C12.6,246.2,2.2,235.7,2.2,222.9z"/>
		<path class="st0" d="M73,212.9c-2.8,0-6,1.1-8.2,3v29.5H51.1v-45.2h13.6v4c2.5-3.2,5.9-4.7,10.3-4.7c1.4,0,3.2,0.2,4.9,0.7v14.2
			C77.8,213.4,75.3,212.9,73,212.9z"/>
		<path class="st0" d="M83.1,222.9c0-13.3,9.4-23.3,23.3-23.3c11.5,0,21.8,7.5,21.8,21.8c0,1.3-0.1,2.6-0.3,4H96.2
			c0.7,6.1,5.8,8.4,9.8,8.4c4.8,0,7.9-2.3,9.7-5.7l10.8,7.3c-4.2,6.5-11.5,10.8-20.4,10.8C94.2,246.2,83.1,236.8,83.1,222.9z
			 M114.7,217.4l-0.1-0.5c-0.9-4.4-4.8-6.3-9-6.3c-3.3,0-7.9,1.4-9.2,6.9H114.7z"/>
		<path class="st0" d="M154.6,246.2c-13.4,0-21.9-10.9-21.9-23.3c0-12.4,8.5-23.3,21.9-23.3c3.7,0,7.3,1.3,9.9,3.4v-2.7h13.6v45.2
			h-13.6v-2.7C161.9,244.9,158.3,246.2,154.6,246.2z M164.5,229.9v-14.1c-1.8-2.4-4.3-3.8-7.7-3.8c-6.5,0-10.4,4.9-10.4,10.8
			c0,6,3.9,10.8,10.4,10.8C160.2,233.7,162.7,232.4,164.5,229.9z"/>
		<path class="st0" d="M190.4,231.5v-19.3h-5.9l-3-11.9h8.8v-6.8l13.6-6.8v13.5h14.3l-3,11.9h-11.3v15.4c0,3.8,1.5,5.3,5.2,5.3h7.4
			v12.5h-12.5C195.8,245.4,190.4,240.1,190.4,231.5z"/>
		<path class="st0" d="M231.3,180.6c4.5,0,8.1,3.6,8.1,8.1c0,2-0.6,3.8-1.8,5.1h-12.6c-1.2-1.4-1.8-3.2-1.8-5.1
			C223.1,184.2,226.7,180.6,231.3,180.6z M224.4,245.4v-45.2h13.7v45.2H224.4z"/>
		<path class="st0" d="M245.3,222.9c0-13.3,9.4-23.3,23.3-23.3c11.5,0,21.8,7.5,21.8,21.8c0,1.3-0.1,2.6-0.3,4h-31.7
			c0.7,6.1,5.8,8.4,9.8,8.4c4.8,0,7.9-2.3,9.7-5.7l10.8,7.3c-4.2,6.5-11.5,10.8-20.4,10.8C256.5,246.2,245.3,236.8,245.3,222.9z
			 M277,217.4l-0.1-0.5c-0.9-4.4-4.8-6.3-9-6.3c-3.3,0-7.9,1.4-9.2,6.9H277z"/>
		<path class="st0" d="M326.3,200.3H342l-26.3,45.9l-26.3-45.9h15.7l10.6,19.7L326.3,200.3z"/>
		<path class="st0" d="M339.7,222.9c0-13.3,9.4-23.3,23.3-23.3c11.5,0,21.8,7.5,21.8,21.8c0,1.3-0.1,2.6-0.3,4h-31.7
			c0.7,6.1,5.8,8.4,9.8,8.4c4.8,0,7.9-2.3,9.7-5.7l10.8,7.3c-4.2,6.5-11.5,10.8-20.4,10.8C350.8,246.2,339.7,236.8,339.7,222.9z
			 M371.3,217.4l-0.1-0.5c-0.9-4.4-4.8-6.3-9-6.3c-3.3,0-7.9,1.4-9.2,6.9H371.3z"/>
	</g>
	<g>
		<path class="st0" d="M11.6,270.9c4.5,0,8.1,3.6,8.1,8.1c0,2-0.6,3.8-1.8,5.1H5.3c-1.2-1.4-1.8-3.2-1.8-5.1
			C3.5,274.5,7.1,270.9,11.6,270.9z M4.8,335.8v-45.2h13.7v45.2H4.8z"/>
		<path class="st0" d="M50.1,302.3c-2.6,0-5.9,1.4-8.1,3.9v29.5H28.4v-45.2H42v2.7c2.7-2.2,6.4-3.4,10.4-3.4
			c12.7,0,19.7,8.5,19.7,20.7v25.2H58.4V313C58.4,306.9,56.1,302.3,50.1,302.3z"/>
		<path class="st0" d="M100.9,336.5c-13.4,0-21.9-10.9-21.9-23.3c0-12.4,8.5-23.3,21.9-23.3c3.7,0,7.3,1.3,9.9,3.4v-21.7h13.6v64.1
			h-13.6V333C108.2,335.2,104.6,336.5,100.9,336.5z M110.8,320.2v-14.1c-1.8-2.4-4.3-3.8-7.7-3.8c-6.5,0-10.4,4.9-10.4,10.8
			c0,6,3.9,10.8,10.4,10.8C106.5,324,109,322.7,110.8,320.2z"/>
		<path class="st0" d="M163.8,332.4c-2.7,2.5-7,4.1-10.7,4.1c-12.2,0-19.3-8.4-19.3-20.7v-25.2h13.6v22.8c0,6.1,2.5,10.7,7.9,10.7
			c3.3,0,6.7-1.6,8.5-4.6v-28.8h13.6v45.2h-13.6V332.4z"/>
		<path class="st0" d="M200.6,336.5c-7.9,0-14.3-2.8-18.2-9.6l10.4-7c1.8,3.3,4.2,5.5,8.3,5.5c1.9,0,3.5-0.5,3.5-2.1
			c0-1.7-1.3-2.3-5.7-4l-2.3-0.9c-7.9-3.1-11.9-8.1-11.9-14.5c0-8.3,6.9-14,15.5-14c5.8,0,10.8,2.2,14.3,7.1l-7.8,7.7
			c-1.7-2.4-3.7-4.1-6.5-4.1c-1.8,0-3.3,0.6-3.3,2.1c0,1.8,1.4,2.3,6,4.1l1.9,0.7c8.6,3.3,12.1,7.9,12.1,14.6
			C217,331.3,209.9,336.5,200.6,336.5z"/>
		<path class="st0" d="M226.4,321.8v-19.3h-5.9l-3-11.9h8.9v-6.8L240,277v13.5h14.3l-3,11.9H240V318c0,3.8,1.5,5.3,5.2,5.3h7.4v12.5
			h-12.5C231.7,335.8,226.4,330.4,226.4,321.8z"/>
		<path class="st0" d="M282.2,303.2c-2.8,0-6.1,1.1-8.2,3v29.5h-13.6v-45.2H274v4c2.5-3.2,5.9-4.7,10.3-4.7c1.4,0,3.2,0.2,4.9,0.7
			v14.2C287.1,303.7,284.5,303.2,282.2,303.2z"/>
		<path class="st0" d="M301.8,270.9c4.5,0,8.1,3.6,8.1,8.1c0,2-0.6,3.8-1.8,5.1h-12.6c-1.2-1.4-1.8-3.2-1.8-5.1
			C293.7,274.5,297.3,270.9,301.8,270.9z M294.9,335.8v-45.2h13.7v45.2H294.9z"/>
		<path class="st0" d="M315.9,313.2c0-13.3,9.4-23.3,23.3-23.3c11.5,0,21.8,7.5,21.8,21.8c0,1.3-0.1,2.6-0.3,4H329
			c0.7,6.1,5.8,8.4,9.8,8.4c4.8,0,7.9-2.3,9.7-5.7l10.8,7.3c-4.2,6.5-11.5,10.8-20.4,10.8C327,336.5,315.9,327.1,315.9,313.2z
			 M347.5,307.7l-0.1-0.5c-0.9-4.4-4.8-6.3-9-6.3c-3.3,0-7.9,1.4-9.2,6.9H347.5z"/>
	</g>
</g>
</svg>
